<?xml version="1.0" encoding="UTF-8" standalone="no"?>
<!-- Generated by IcoMoon.io -->

<svg
   xmlns:dc="http://purl.org/dc/elements/1.1/"
   xmlns:cc="http://creativecommons.org/ns#"
   xmlns:rdf="http://www.w3.org/1999/02/22-rdf-syntax-ns#"
   xmlns:svg="http://www.w3.org/2000/svg"
   xmlns="http://www.w3.org/2000/svg"
   xmlns:sodipodi="http://sodipodi.sourceforge.net/DTD/sodipodi-0.dtd"
   xmlns:inkscape="http://www.inkscape.org/namespaces/inkscape"
   version="1.1"
   width="64"
   height="64"
   viewBox="0 0 64 64"
   id="svg2"
   inkscape:version="0.91 r13725"
   sodipodi:docname="custom-user-nb.svg">
  <metadata
     id="metadata12">
    <rdf:RDF>
      <cc:Work
         rdf:about="">
        <dc:format>image/svg+xml</dc:format>
        <dc:type
           rdf:resource="http://purl.org/dc/dcmitype/StillImage" />
        <dc:title></dc:title>
      </cc:Work>
    </rdf:RDF>
  </metadata>
  <defs
     id="defs10" />
  <sodipodi:namedview
     pagecolor="#ffffff"
     bordercolor="#666666"
     borderopacity="1"
     objecttolerance="10"
     gridtolerance="10"
     guidetolerance="10"
     inkscape:pageopacity="0"
     inkscape:pageshadow="2"
     inkscape:window-width="1920"
     inkscape:window-height="1147"
     id="namedview8"
     showgrid="true"
     inkscape:zoom="3.6875"
     inkscape:cx="32"
     inkscape:cy="32"
     inkscape:window-x="0"
     inkscape:window-y="31"
     inkscape:window-maximized="1"
     inkscape:current-layer="svg2">
    <inkscape:grid
       type="xygrid"
       id="grid3340" />
  </sodipodi:namedview>
  <path
     d="M24 46c0-9.452 5.992-17.53 14.377-20.637 1.017-2.284 1.623-4.823 1.623-7.363 0-9.941 0-18-12-18s-12 8.059-12 18c0 6.191 3.594 12.382 8 14.864v3.299c-13.569 1.109-24 7.776-24 15.837h24.832c-0.541-1.908-0.832-3.921-0.832-6z"
     fill="#000000"
     id="path4" />
  <path
     d="m 46,28 c -9.941,0 -18,8.059 -18,18 0,9.941 8.059,18 18,18 9.941,0 18,-8.059 18,-18 0,-9.941 -8.059,-18 -18,-18 z"
     id="path6"
     inkscape:connector-curvature="0"
     style="fill:#000000"
     sodipodi:nodetypes="sssss" />
</svg>
